<svg xmlns="http://www.w3.org/2000/svg" viewBox="0 0 110.76 80.63"><defs><style>.cls-1{fill:#818181;}</style></defs><g id="Layer_2" data-name="Layer 2"><g id="Menu"><path class="cls-1" d="M17.88,58.05A17.89,17.89,0,1,1,35.77,40.17,17.9,17.9,0,0,1,17.88,58.05m0-30.67A12.79,12.79,0,1,0,30.67,40.17,12.81,12.81,0,0,0,17.88,27.38"/><path class="cls-1" d="M56,58.05A17.89,17.89,0,1,1,73.86,40.17,17.9,17.9,0,0,1,56,58.05m0-30.67A12.79,12.79,0,1,0,68.76,40.17,12.81,12.81,0,0,0,56,27.38"/><path class="cls-1" d="M92.72,58.05a17.89,17.89,0,1,1,17.83-19.28l.21,2.74H92.7V36.42H105A12.79,12.79,0,1,0,92.72,53Z"/><rect class="cls-1" x="38.09" y="40.17" width="5.09" height="40.17"/><rect class="cls-1" x="30.67" width="5.09" height="40.17"/><rect class="cls-1" x="47.68" y="62.77" width="0.77" height="17.56"/><path class="cls-1" d="M79.52,79.65l0,.66h-.67a1.48,1.48,0,0,1-1-.5,3.47,3.47,0,0,1-.45-1.73A5.29,5.29,0,0,1,74.88,80a10.18,10.18,0,0,1-3.68.64,6.72,6.72,0,0,1-3.79-1,3.09,3.09,0,0,1-1.51-2.73,3.34,3.34,0,0,1,2.8-3.44,15.08,15.08,0,0,1,3-.42l3-.16,1.21-.13c1.08-.25,1.62-.77,1.62-1.57C77.51,69.1,76,68,72.91,68a7.16,7.16,0,0,0-3.52.69,3.8,3.8,0,0,0-1.72,2.57h-.82a4.48,4.48,0,0,1,2-3,7.72,7.72,0,0,1,4.1-.9q5.25,0,5.25,3.66v6.62c0,1.32.35,2,1.06,2Zm-2-6.92q-.69.83-3.6,1c-.74,0-1.59.07-2.56.13q-4.65.27-4.63,3.15a2.5,2.5,0,0,0,.82,1.86,5.07,5.07,0,0,0,3.6,1.11,7.27,7.27,0,0,0,4.75-1.41,4.06,4.06,0,0,0,1.62-3.33Z"/><path class="cls-1" d="M103.31,80.63a8.28,8.28,0,0,1-3.68-.83,5.28,5.28,0,0,1-2.71-2.72v3.26h-.63V62.77h.63v8.11a5.44,5.44,0,0,1,2.92-2.81,8.52,8.52,0,0,1,3.47-.74,6.51,6.51,0,0,1,5,1.93A6.63,6.63,0,0,1,110,74a6.43,6.43,0,0,1-1.86,4.8,6.62,6.62,0,0,1-4.87,1.83m0-12.61a6.55,6.55,0,0,0-4.66,1.61A5.72,5.72,0,0,0,96.92,74a5.59,5.59,0,0,0,1.77,4.28,6.39,6.39,0,0,0,4.59,1.66,5.91,5.91,0,0,0,4.64-1.86A5.84,5.84,0,0,0,109.4,74,6,6,0,0,0,108,70a5.81,5.81,0,0,0-4.71-2"/></g></g></svg>