<svg xmlns="http://www.w3.org/2000/svg" viewBox="0 0 110.08 80.13"><defs><style>.cls-1{fill:#78c4ba;}.cls-2{fill:#828282;}</style></defs><g id="Layer_2" data-name="Layer 2"><g id="About_Us" data-name="About Us"><path class="cls-1" d="M17.77,57.69A17.77,17.77,0,1,1,35.55,39.92,17.79,17.79,0,0,1,17.77,57.69m0-30.48A12.71,12.71,0,1,0,30.48,39.92,12.72,12.72,0,0,0,17.77,27.21"/><path class="cls-1" d="M55.63,57.69A17.77,17.77,0,1,1,73.4,39.92,17.8,17.8,0,0,1,55.63,57.69m0-30.48A12.71,12.71,0,1,0,68.34,39.92,12.72,12.72,0,0,0,55.63,27.21"/><path class="cls-1" d="M92.14,57.69a17.77,17.77,0,1,1,17.72-19.16l.22,2.73h-18V36.19H104.3A12.71,12.71,0,1,0,92.14,52.63Z"/><rect class="cls-1" x="37.86" y="39.92" width="5.06" height="39.92"/><rect class="cls-1" x="30.48" width="5.06" height="39.92"/><rect class="cls-2" x="47.38" y="62.38" width="0.76" height="17.45"/><path class="cls-2" d="M79,79.15l0,.66h-.66a1.42,1.42,0,0,1-1-.5A3.41,3.41,0,0,1,77,77.6a5.28,5.28,0,0,1-2.55,1.9,10.11,10.11,0,0,1-3.66.63A6.67,6.67,0,0,1,67,79.18a3.07,3.07,0,0,1-1.51-2.71,3.31,3.31,0,0,1,2.79-3.42,14,14,0,0,1,2.94-.43l3-.15,1.2-.14c1.07-.24,1.61-.76,1.61-1.55,0-2.11-1.53-3.16-4.57-3.16a7.1,7.1,0,0,0-3.5.69,3.7,3.7,0,0,0-1.7,2.55h-.82a4.39,4.39,0,0,1,2-3,7.67,7.67,0,0,1,4.08-.9c3.48,0,5.21,1.21,5.21,3.64v6.58c0,1.31.35,2,1.06,2Zm-2-6.87c-.46.55-1.65.86-3.58,1l-2.54.13q-4.64.27-4.6,3.13a2.46,2.46,0,0,0,.81,1.85,5,5,0,0,0,3.58,1.1,7.24,7.24,0,0,0,4.72-1.39A4.08,4.08,0,0,0,77,74.73Z"/><path class="cls-2" d="M102.67,80.13A8.19,8.19,0,0,1,99,79.31a5.26,5.26,0,0,1-2.69-2.71v3.24h-.63V62.38h.63v8.06a5.4,5.4,0,0,1,2.9-2.79,8.43,8.43,0,0,1,3.45-.74,6.51,6.51,0,0,1,4.92,1.92,6.6,6.6,0,0,1,1.77,4.72,6.39,6.39,0,0,1-1.85,4.76,6.6,6.6,0,0,1-4.84,1.82m0-12.53A6.49,6.49,0,0,0,98,69.2a5.69,5.69,0,0,0-1.72,4.35,5.58,5.58,0,0,0,1.76,4.25,6.41,6.41,0,0,0,4.56,1.64,5.67,5.67,0,0,0,6.08-5.89,6,6,0,0,0-1.36-4,5.78,5.78,0,0,0-4.69-2"/></g></g></svg>